<?xml version="1.0" encoding="UTF-8" standalone="no"?>
<!-- Created with Inkscape (http://www.inkscape.org/) -->

<svg
   xmlns:dc="http://purl.org/dc/elements/1.1/"
   xmlns:cc="http://creativecommons.org/ns#"
   xmlns:rdf="http://www.w3.org/1999/02/22-rdf-syntax-ns#"
   xmlns:svg="http://www.w3.org/2000/svg"
   xmlns="http://www.w3.org/2000/svg"
   xmlns:sodipodi="http://sodipodi.sourceforge.net/DTD/sodipodi-0.dtd"
   xmlns:inkscape="http://www.inkscape.org/namespaces/inkscape"
   version="1.0"
   width="24"
   height="24"
   viewBox="0 0 24.000001 24"
   id="Layer_1"
   xml:space="preserve"
   sodipodi:docname="USB_icon.svg"
   inkscape:version="0.92.3 (2405546, 2018-03-11)"
   inkscape:export-filename="/home/user/ref/libusbhost/secureusb_icon.png"
   inkscape:export-xdpi="1280"
   inkscape:export-ydpi="1280"><metadata
   id="metadata7"><rdf:RDF><cc:Work
       rdf:about=""><dc:format>image/svg+xml</dc:format><dc:type
         rdf:resource="http://purl.org/dc/dcmitype/StillImage" /><dc:title></dc:title></cc:Work></rdf:RDF></metadata><sodipodi:namedview
   pagecolor="#ffffff"
   bordercolor="#666666"
   borderopacity="1"
   objecttolerance="10"
   gridtolerance="10"
   guidetolerance="10"
   inkscape:pageopacity="1"
   inkscape:pageshadow="2"
   inkscape:window-width="1920"
   inkscape:window-height="1030"
   id="namedview5"
   showgrid="false"
   units="px"
   inkscape:zoom="22.627417"
   inkscape:cx="6.8983878"
   inkscape:cy="13.626763"
   inkscape:window-x="0"
   inkscape:window-y="50"
   inkscape:window-maximized="0"
   inkscape:current-layer="Layer_1" /><defs
   id="defs1337" />
<path
   d="M 9.1909916,1.0365848 6.7543191,5.2559831 H 8.4925226 V 15.009993 L 4.0559868,10.810749 C 3.7695331,10.453379 3.568585,9.9857932 3.5574545,9.5048004 c 0,-1.9458109 -5.065e-4,-1.7888256 -0.00136,-2.2141627 0.8214146,-0.2883098 1.414308,-1.0627543 1.414308,-1.983421 0,-1.1647037 -0.9451206,-2.1099103 -2.1102466,-2.1099103 -1.1656325,0 -2.11041486,0.9451205 -2.11041486,2.1099103 0,0.9206667 0.59255516,1.6951112 1.41329516,1.983421 l -5.905e-4,2.1728424 c 0,0.9446159 0.5182659,1.9344279 1.1258318,2.5644249 -0.018039,-0.01719 -0.037271,-0.03508 3.365e-4,10e-4 0.014994,0.01332 4.7065449,4.455256 4.7065449,4.455256 0.2860334,0.356613 0.4857161,0.823945 0.4971849,1.304601 v 8.752206 c -1.6117146,0.323388 -2.8260028,1.746635 -2.8260028,3.45389 0,1.946487 1.5778153,3.524302 3.5237111,3.524302 1.9464859,0 3.5243859,-1.577815 3.5243859,-3.524302 0,-1.707592 -1.2153,-3.130838 -2.8283611,-3.454226 v -8.709455 c 0,-0.0061 3.365e-4,-0.01224 0,-0.01856 v -5.301631 c 0.012235,-0.479729 0.2121621,-0.94647 0.4985321,-1.302745 0,0 4.691197,-4.4409224 4.706376,-4.4546676 0.03771,-0.035583 0.01805,-0.017872 3.38e-4,-3.365e-4 0.60748,-0.6299968 1.125408,-1.6202312 1.125408,-2.565013 L 16.215975,3.454345 h 1.414729 V -0.76611257 H 13.410639 V 3.4543809 h 1.412874 c 0,0 -0.0015,-1.7403408 -0.0015,0.7750052 -0.01102,0.4810766 -0.211742,0.9491696 -0.498196,1.306372 L 9.8863699,9.7359362 V 5.2559831 h 1.7409841 z"
   id="path1334"
   inkscape:connector-curvature="0"
   style="stroke:#000000;stroke-width:1;stroke-miterlimit:4;stroke-dasharray:none"
   inkscape:transform-center-x="3.8484292"
   inkscape:transform-center-y="16.5482"
   sodipodi:nodetypes="cccccccssscccccccssscscccccccccccccccccc" />
<g
   id="g4661"
   transform="matrix(0.95637878,0,0,0.95637878,49.375726,8.0349764)"
   inkscape:export-xdpi="1280"
   inkscape:export-ydpi="1280"><rect
     ry="1.6849748"
     y="6.75"
     x="-39.125"
     height="9.8125"
     width="12.375"
     id="rect4608"
     style="opacity:1;vector-effect:none;fill:#000000;fill-opacity:1;stroke:none;stroke-width:0.8904658;stroke-linecap:butt;stroke-linejoin:miter;stroke-miterlimit:4;stroke-dasharray:none;stroke-dashoffset:0;stroke-opacity:1" /><rect
     ry="3.9323201"
     y="0.68743151"
     x="-36.86982"
     height="9.4375687"
     width="7.8646402"
     id="rect4610"
     style="opacity:1;vector-effect:none;fill:none;fill-opacity:1;stroke:#000000;stroke-width:2.69644809;stroke-linecap:butt;stroke-linejoin:miter;stroke-miterlimit:4;stroke-dasharray:none;stroke-dashoffset:0;stroke-opacity:1" /><g
     transform="matrix(0.93546514,0,0,0.93546514,-1.0854549,1.4271834)"
     id="g4654"><circle
       style="opacity:1;vector-effect:none;fill:#ffffff;fill-opacity:1;stroke:none;stroke-width:2.72307682;stroke-linecap:butt;stroke-linejoin:miter;stroke-miterlimit:4;stroke-dasharray:none;stroke-dashoffset:0;stroke-opacity:1"
       id="path4627"
       cx="-34.051041"
       cy="8.8928328"
       r="1.84375" /><path
       style="opacity:1;vector-effect:none;fill:#ffffff;fill-opacity:1;stroke:none;stroke-width:3;stroke-linecap:butt;stroke-linejoin:miter;stroke-miterlimit:4;stroke-dasharray:none;stroke-dashoffset:0;stroke-opacity:1"
       d="m -34.754167,8.8303324 h 1.40625 l 1.140625,4.8258756 c 0.125,0.616281 -0.508719,1.140625 -1.140625,1.140625 h -1.40625 c -0.631906,0 -1.25,-0.508719 -1.140625,-1.140625 z"
       id="rect4629"
       inkscape:connector-curvature="0"
       sodipodi:nodetypes="cccsscc" /></g></g><path
   style="opacity:1;vector-effect:none;fill:#ffffff;fill-opacity:1;stroke:none;stroke-width:1;stroke-linecap:butt;stroke-linejoin:miter;stroke-miterlimit:4;stroke-dasharray:none;stroke-dashoffset:0;stroke-opacity:1"
   d="M -21.203125 -21.580078 L -21.203125 45.580078 L 45.203125 45.580078 L 45.203125 -21.580078 L -21.203125 -21.580078 z M 0 0 L 24 0 L 24 24 L 0 24 L 0 0 z "
   id="rect816" /></svg>